<?xml version="1.0" encoding="UTF-8"?>
<svg xmlns="http://www.w3.org/2000/svg" viewBox="0 0 719.000000 59.000000" preserveAspectRatio="xMidYMid meet">
<g transform="translate(0.000000,59.000000) scale(0.100000,-0.100000)" fill="#c41e3a" stroke="none">
<path d="M3920 563 c0 -4 10 -17 23 -31 21 -23 22 -29 21 -228 0 -144 -4 -208
-12 -216 -30 -30 -13 -38 77 -38 90 0 113 9 91 35 -6 7 -14 45 -17 83 -6 70
-6 70 95 74 111 3 136 14 180 78 29 43 30 121 2 167 -38 63 -49 66 -337 78
-68 3 -123 2 -123 -2z m318 -119 c26 -18 29 -56 6 -78 -11 -11 -35 -16 -80
-16 -64 0 -64 0 -64 55 0 55 0 55 58 55 36 0 66 -6 80 -16z"/>
<path d="M117 541 c16 -16 21 -37 27 -115 8 -108 -2 -334 -15 -342 -5 -3 -9
-12 -9 -20 0 -11 18 -14 90 -14 95 0 104 5 75 44 -11 15 -15 51 -15 149 0 130
0 130 123 -34 124 -164 124 -164 169 -161 46 4 46 4 50 232 3 225 4 229 28
254 23 26 23 26 -73 26 -53 0 -97 -2 -97 -5 0 -3 7 -16 15 -29 12 -18 15 -46
13 -120 -3 -97 -3 -97 -98 28 -95 125 -95 125 -199 126 -104 0 -105 0 -84 -19z"/>
<path d="M1860 554 c0 -3 15 -24 34 -47 18 -23 64 -89 101 -147 67 -105 67
-105 61 -179 -3 -41 -13 -85 -21 -97 -8 -13 -15 -26 -15 -29 0 -3 47 -5 105
-5 58 0 105 3 105 8 0 4 -7 17 -15 29 -15 21 -20 66 -17 144 2 37 13 62 61
135 32 49 80 113 106 142 47 52 47 52 -60 52 -107 0 -107 0 -101 -27 5 -21 -3
-43 -31 -90 -20 -35 -40 -63 -43 -63 -4 0 -21 30 -38 67 -23 49 -28 71 -21 84
5 10 9 20 9 23 0 3 -49 6 -110 6 -60 0 -110 -3 -110 -6z"/>
<path d="M689 464 c19 -25 21 -40 21 -200 0 -104 -4 -175 -10 -179 -5 -3 -10
-13 -10 -21 0 -12 30 -14 184 -14 184 0 184 0 188 73 2 39 3 74 2 75 -2 2 -15
-5 -31 -16 -20 -15 -52 -22 -115 -26 -88 -6 -88 -6 -88 35 0 42 0 42 53 35 28
-3 62 -9 75 -12 21 -6 22 -4 22 61 0 58 -2 66 -17 61 -10 -3 -44 -8 -75 -12
-58 -6 -58 -6 -58 35 0 40 1 41 33 40 37 -1 122 -14 155 -24 21 -7 22 -5 22
54 0 61 0 61 -186 61 -185 0 -185 0 -165 -26z"/>
<path d="M1067 483 c-4 -3 0 -11 7 -17 16 -12 94 -224 122 -327 22 -82 28 -89
75 -89 38 0 38 0 76 115 20 63 40 115 44 115 4 0 24 -52 44 -115 37 -115 37
-115 83 -115 47 0 47 0 106 176 32 97 67 192 78 212 10 20 18 40 18 44 0 4
-39 8 -86 8 -85 0 -86 0 -79 -22 4 -13 7 -32 6 -43 0 -31 -34 -155 -42 -155
-7 0 -32 98 -45 178 -7 42 -7 42 -74 42 -68 0 -68 0 -75 -47 -10 -72 -36 -173
-45 -173 -12 0 -44 132 -44 178 1 42 1 42 -81 42 -45 0 -85 -3 -88 -7z"/>
<path d="M2442 474 c-100 -51 -142 -201 -87 -311 38 -75 89 -107 179 -111 63
-3 77 0 126 25 80 42 112 98 113 196 0 88 -19 135 -77 181 -35 29 -44 31 -129
34 -71 2 -100 -1 -125 -14z m181 -127 c38 -77 18 -164 -46 -195 -34 -16 -75 0
-94 38 -20 39 -16 130 6 167 34 55 105 50 134 -10z"/>
<path d="M2810 483 c0 -5 7 -17 15 -27 12 -16 15 -56 15 -192 0 -105 -4 -175
-10 -179 -5 -3 -10 -13 -10 -21 0 -11 18 -14 86 -14 85 0 86 0 79 23 -14 46
-23 101 -18 114 15 38 76 -22 94 -93 11 -44 11 -44 100 -44 51 0 89 4 89 10 0
5 -13 24 -28 42 -16 18 -41 51 -55 73 -27 39 -27 39 5 72 28 29 33 42 36 96 3
53 1 66 -19 91 -37 47 -73 56 -234 56 -80 0 -145 -3 -145 -7z m251 -104 c12
-6 19 -21 19 -39 0 -25 -5 -30 -37 -39 -21 -6 -48 -11 -60 -11 -21 0 -23 5
-23 56 0 57 0 57 41 50 23 -4 50 -11 60 -17z"/>
<path d="M3270 487 c0 -2 7 -18 16 -36 22 -44 26 -310 5 -359 -7 -18 -10 -36
-7 -40 8 -7 157 -4 165 4 3 3 0 13 -6 23 -26 42 -24 139 3 148 15 5 94 -122
94 -151 0 -26 0 -26 95 -26 61 0 95 4 95 11 0 6 -18 31 -39 57 -22 26 -62 80
-90 121 -50 74 -50 74 -10 120 22 25 63 65 90 89 51 42 51 42 -55 42 -105 0
-106 0 -106 -23 0 -24 -42 -90 -72 -115 -14 -11 -17 -10 -22 6 -6 19 4 77 19
115 6 15 -1 17 -84 17 -50 0 -91 -2 -91 -3z"/>
<path d="M4450 462 c20 -26 21 -39 17 -198 -2 -93 -7 -179 -11 -192 -8 -22 -7
-22 84 -22 91 0 92 0 85 23 -5 12 -10 98 -12 191 -4 160 -4 170 16 197 22 29
22 29 -89 29 -111 0 -111 0 -90 -28z"/>
<path d="M4710 429 c0 -61 0 -61 28 -55 55 14 135 27 144 24 5 -2 -23 -46 -63
-98 -40 -52 -88 -114 -106 -138 -23 -31 -33 -54 -33 -79 0 -36 0 -36 187 -29
103 4 191 10 195 12 11 7 10 124 0 124 -5 0 -22 -6 -38 -14 -39 -19 -140 -30
-148 -17 -4 6 15 39 42 73 88 111 152 211 152 235 0 23 0 23 -180 23 -180 0
-180 0 -180 -61z"/>
<path d="M5130 429 c0 -61 0 -61 28 -55 100 22 127 25 135 17 6 -6 -21 -48
-66 -109 -97 -127 -117 -161 -117 -195 0 -27 0 -27 188 -25 187 3 187 3 190
66 2 34 1 62 -1 62 -3 0 -18 -7 -33 -15 -18 -9 -57 -15 -102 -15 -73 0 -73 0
-19 68 118 148 147 193 147 228 0 34 0 34 -175 34 -175 0 -175 0 -175 -61z"/>
<path d="M5541 464 c23 -25 24 -29 23 -195 0 -118 -4 -173 -12 -181 -7 -7 -12
-18 -12 -25 0 -15 157 -18 293 -7 77 7 77 7 77 70 0 35 -2 64 -5 64 -3 0 -16
-6 -28 -14 -12 -8 -61 -18 -109 -22 -88 -7 -88 -7 -88 36 0 43 0 43 53 36 28
-3 62 -9 75 -12 21 -6 22 -4 22 61 0 58 -2 66 -17 61 -10 -3 -45 -8 -77 -12
-53 -6 -59 -5 -53 10 4 10 7 26 7 37 0 17 8 19 79 19 44 0 83 -4 86 -10 3 -5
13 -10 21 -10 11 0 14 14 14 60 0 60 0 60 -187 60 -186 0 -186 0 -162 -26z"/>
<path d="M5957 470 c16 -14 23 -37 28 -84 10 -95 2 -283 -13 -298 -30 -30 -14
-38 79 -38 83 0 90 2 84 17 -51 123 -1 186 56 73 16 -30 31 -63 33 -72 5 -15
18 -18 85 -18 44 0 82 4 85 9 3 4 -14 34 -39 65 -53 69 -63 95 -41 108 47 26
61 136 26 193 -35 56 -68 65 -246 65 -157 0 -158 0 -137 -20z m254 -91 c28
-15 26 -67 -3 -73 -101 -21 -98 -22 -98 40 0 57 0 57 41 50 23 -4 50 -11 60
-17z"/>
<path d="M6429 464 c19 -25 21 -40 21 -193 -1 -130 -4 -170 -15 -185 -8 -11
-15 -23 -15 -28 0 -4 41 -8 91 -8 90 0 91 0 84 23 -26 84 -30 356 -5 381 6 6
10 16 10 23 0 10 -24 13 -96 13 -95 0 -95 0 -75 -26z"/>
<path d="M6785 457 c5 -27 -4 -62 -44 -163 -29 -71 -65 -151 -81 -177 -17 -27
-30 -53 -30 -58 0 -5 38 -9 85 -9 86 0 86 0 80 34 -13 66 -3 76 80 76 81 0 85
-3 85 -71 0 -39 0 -39 83 -39 46 0 86 3 89 6 3 3 -13 42 -37 87 -24 45 -67
142 -96 215 -53 132 -53 132 -136 132 -84 0 -84 0 -78 -33z m124 -203 c1 -12
-30 -24 -62 -24 -20 0 -18 13 10 80 15 35 15 35 33 -5 10 -22 19 -45 19 -51z"/>
</g>
<g transform="translate(0.000000,59.000000) scale(0.100000,-0.100000)" fill="#fff" stroke="none">
<path d="M134 538 c13 -19 16 -58 16 -233 0 -115 -5 -217 -10 -225 -7 -11 -5
-17 8 -22 22 -8 90 -10 119 -2 21 6 22 8 7 35 -11 23 -14 60 -12 167 3 137 3
137 131 -33 71 -93 135 -170 143 -169 67 4 60 -20 67 228 5 187 8 229 22 250
17 26 17 26 -64 26 -82 0 -82 0 -66 -30 17 -33 22 -246 6 -235 -5 3 -55 64
-111 135 -101 130 -101 130 -186 130 -85 0 -85 0 -70 -22z m249 -111 c110
-142 124 -156 133 -134 8 21 0 219 -10 240 -7 15 -2 17 53 17 60 0 71 -6 50
-27 -6 -6 -13 -96 -16 -231 -6 -220 -6 -220 -37 -226 -19 -4 -33 -2 -38 6 -34
58 -245 322 -253 318 -10 -5 -13 -263 -4 -305 4 -18 -1 -20 -50 -20 -53 0 -53
0 -52 222 1 144 -2 230 -9 243 -10 19 -8 20 63 20 74 0 74 0 170 -123z"/>
<path d="M1892 553 c-23 -4 -23 -4 5 -36 16 -18 59 -80 96 -138 67 -106 67
-106 67 -194 0 -66 -4 -93 -16 -106 -14 -16 -14 -18 6 -24 13 -4 56 -4 96 0
73 7 74 7 59 28 -10 15 -15 47 -15 107 0 86 0 86 58 175 33 50 78 113 101 140
41 50 41 50 -16 53 -32 2 -73 0 -91 -3 -27 -5 -31 -9 -27 -28 6 -24 -60 -147
-82 -154 -16 -6 -73 108 -73 146 0 17 -6 31 -16 35 -17 7 -115 6 -152 -1z
m159 -43 c6 -38 52 -135 69 -145 6 -4 18 -1 26 6 25 20 86 138 80 154 -7 19
25 27 93 23 54 -3 54 -3 16 -48 -21 -25 -65 -85 -97 -135 -58 -89 -58 -89 -58
-173 0 -46 4 -91 10 -101 8 -16 4 -19 -28 -25 -82 -13 -138 -3 -102 19 6 3 10
48 10 98 0 92 0 92 -79 213 -43 67 -84 125 -91 129 -24 15 13 25 80 23 65 -3
65 -3 71 -38z"/>
<path d="M3954 538 c13 -19 16 -57 16 -231 0 -118 -4 -216 -10 -227 -9 -16 -5
-19 29 -25 22 -4 60 -3 85 0 38 6 44 10 37 24 -5 9 -12 48 -16 87 -7 71 -7 71
86 77 107 8 154 27 186 76 43 63 23 179 -35 210 -24 13 -83 19 -260 26 -134 6
-134 6 -118 -17z m299 -3 c32 -3 67 -9 77 -15 50 -27 67 -137 30 -198 -27 -44
-71 -61 -181 -69 -64 -4 -92 -10 -96 -20 -3 -8 -1 -47 4 -86 6 -40 9 -73 8
-75 -6 -7 -76 -14 -97 -9 -23 6 -23 6 -20 226 2 146 -1 227 -8 241 -11 20 -9
20 107 15 65 -3 144 -8 176 -10z"/>
<path d="M4092 467 c-8 -10 -12 -37 -10 -74 3 -58 3 -58 76 -61 66 -3 74 -1
97 22 32 32 32 66 0 96 -33 31 -143 42 -163 17z m157 -21 c27 -24 27 -60 1
-86 -16 -16 -33 -20 -90 -20 -70 0 -70 0 -70 58 0 32 3 62 8 66 14 15 130 1
151 -18z"/>
<path d="M706 454 c12 -28 14 -71 12 -197 -2 -89 -7 -170 -12 -179 -8 -17 4
-18 168 -18 176 0 176 0 176 38 0 20 3 48 7 60 6 23 5 24 -23 9 -16 -8 -68
-17 -116 -19 -88 -4 -88 -4 -88 39 0 43 0 43 58 43 32 0 63 -5 69 -11 8 -8 13
1 18 34 11 69 8 71 -73 68 -72 -2 -72 -2 -72 38 0 41 0 41 69 41 38 0 82 -5
97 -10 15 -6 29 -8 32 -5 3 2 7 27 10 55 5 50 5 50 -171 50 -176 0 -176 0
-161 -36z m324 -3 c0 -51 -8 -61 -39 -50 -16 6 -59 9 -97 7 -69 -3 -69 -3 -69
-48 0 -45 0 -45 73 -45 72 0 72 0 72 -30 0 -45 -9 -50 -80 -50 -65 0 -65 0
-68 -44 -2 -24 0 -47 5 -51 9 -8 180 3 203 13 13 6 15 0 12 -38 -4 -45 -4 -45
-168 -45 -163 0 -165 0 -154 21 13 23 9 343 -4 372 -8 16 3 17 153 17 161 0
161 0 161 -29z"/>
<path d="M1102 483 c-16 -3 -20 -8 -14 -16 13 -16 99 -254 121 -336 15 -54 22
-66 45 -74 17 -6 31 -5 40 2 7 6 30 65 51 131 22 66 43 116 47 112 4 -4 25
-60 46 -123 39 -114 39 -114 79 -117 40 -3 40 -3 103 180 34 101 69 195 76
210 13 25 13 27 -17 33 -31 7 -144 -5 -121 -12 6 -3 12 -19 12 -36 0 -40 -40
-187 -51 -187 -4 0 -13 19 -19 43 -6 23 -15 58 -21 77 -5 19 -9 54 -9 78 0 42
0 42 -70 42 -70 0 -70 0 -70 -41 0 -46 -26 -166 -40 -189 -9 -13 -11 -13 -19
0 -16 25 -53 188 -46 201 16 24 -50 36 -123 22z m110 -22 c-5 -22 38 -187 54
-208 13 -17 15 -17 28 1 18 22 46 140 46 190 0 36 0 36 60 36 60 0 60 0 60
-37 0 -46 34 -181 49 -196 7 -7 14 -7 20 -2 14 14 51 154 51 192 0 26 5 34 24
39 38 9 81 1 79 -16 -1 -8 -31 -98 -66 -200 -65 -185 -65 -185 -99 -188 -33
-3 -33 -3 -71 112 -35 105 -58 149 -70 129 -2 -4 -21 -60 -42 -123 -20 -63
-40 -119 -44 -123 -5 -4 -19 -5 -33 -2 -20 5 -27 16 -37 58 -7 29 -36 117 -65
197 -35 98 -49 147 -42 153 6 4 31 6 56 5 33 -2 44 -7 42 -17z"/>
<path d="M2837 484 c-15 -5 -16 -8 -2 -27 12 -17 15 -56 15 -185 0 -98 -4
-171 -11 -184 -15 -27 -8 -31 59 -35 69 -5 89 5 73 35 -6 11 -11 43 -11 71 0
48 2 51 25 51 33 0 85 -78 85 -127 0 -33 0 -33 68 -32 37 0 75 4 85 7 15 7 14
11 -11 42 -16 19 -41 53 -55 75 -27 39 -27 39 -3 65 36 38 46 64 46 118 0 59
-24 96 -73 111 -36 11 -262 22 -290 15z m290 -25 c45 -14 63 -44 63 -102 0
-52 -16 -91 -49 -121 -24 -21 -22 -26 38 -106 22 -29 38 -57 35 -62 -3 -4 -34
-8 -70 -8 -64 0 -64 0 -64 29 0 16 -15 51 -32 77 -27 41 -38 49 -63 49 -30 0
-30 0 -30 -60 0 -33 3 -67 5 -75 4 -11 -5 -16 -34 -18 -22 -2 -50 -1 -63 3
-19 4 -22 9 -13 25 13 23 13 340 1 360 -6 8 -7 18 -4 23 7 11 236 -1 280 -14z"/>
<path d="M2954 396 c-3 -7 -4 -35 -2 -62 3 -49 3 -49 51 -52 62 -4 97 17 97
58 0 41 -40 70 -97 70 -28 0 -46 -5 -49 -14z m114 -12 c28 -20 30 -69 3 -84
-11 -5 -40 -10 -65 -10 -46 0 -46 0 -46 55 0 55 0 55 43 55 23 0 53 -7 65 -16z"/>
<path d="M3297 483 c-15 -4 -16 -7 -5 -20 15 -19 19 -352 4 -391 -7 -20 -5
-22 21 -22 17 0 51 3 76 6 41 6 45 9 37 25 -6 10 -10 42 -10 73 0 106 21 113
81 24 28 -41 43 -74 43 -95 1 -33 1 -33 66 -32 36 1 75 4 87 7 22 7 22 7 2 32
-47 60 -159 220 -159 228 0 5 38 46 85 91 85 81 85 81 7 81 -86 0 -96 -4 -105
-40 -8 -33 -76 -120 -93 -120 -18 0 -20 125 -2 136 27 17 -82 31 -135 17z
m114 -81 c-2 -61 0 -73 15 -79 21 -8 76 52 105 115 20 42 20 42 87 42 67 0 67
0 -11 -78 -42 -42 -77 -81 -77 -85 0 -9 109 -165 147 -211 31 -37 19 -46 -58
-46 -55 0 -57 1 -63 30 -7 36 -81 149 -103 157 -30 12 -45 -26 -41 -104 3 -71
3 -71 -26 -77 -15 -3 -42 -6 -58 -6 -25 0 -29 3 -22 18 13 25 17 315 5 356 -5
19 -6 37 -3 41 3 3 29 5 56 3 49 -3 49 -3 47 -76z"/>
<path d="M4466 455 c17 -43 20 -335 3 -367 -8 -16 -8 -23 2 -30 14 -9 134 -7
143 3 3 2 1 22 -4 44 -16 66 -12 310 4 350 15 35 15 35 -74 35 -89 0 -89 0
-74 -35z m138 8 c-12 -27 -17 -297 -6 -348 9 -42 8 -46 -12 -51 -13 -3 -42 -4
-67 -2 -34 2 -43 6 -39 18 8 25 6 353 -3 378 -8 22 -7 22 63 22 65 0 71 -2 64
-17z"/>
<path d="M4768 483 c-41 -4 -49 -8 -54 -29 -3 -13 -3 -36 0 -50 6 -22 11 -25
29 -19 30 11 157 18 157 10 0 -4 -37 -55 -83 -114 -116 -149 -127 -166 -127
-195 0 -26 0 -26 133 -26 72 0 156 3 185 6 52 7 52 7 52 60 0 53 0 53 -35 38
-31 -13 -175 -21 -175 -9 0 2 35 50 79 107 89 117 141 196 141 215 0 10 -28
13 -127 11 -71 -1 -149 -3 -175 -5z m292 -11 c0 -14 -61 -104 -142 -211 -52
-68 -76 -107 -70 -113 11 -11 157 -6 185 6 15 7 17 3 17 -32 0 -39 0 -39 -46
-46 -26 -3 -105 -6 -175 -6 -173 0 -173 -9 0 213 57 74 80 112 73 119 -9 9
-101 7 -157 -3 -17 -3 -20 1 -20 31 0 34 1 35 45 41 69 9 290 10 290 1z"/>
<path d="M5188 483 c-53 -5 -64 -21 -53 -74 6 -26 10 -30 28 -24 31 10 157 19
157 11 0 -4 -40 -60 -89 -124 -91 -120 -121 -169 -121 -197 0 -14 22 -15 182
-13 183 3 183 3 190 43 4 22 5 48 2 57 -4 15 -8 15 -32 2 -25 -13 -182 -21
-182 -9 0 2 43 61 96 130 153 203 153 206 -8 203 -68 -1 -144 -3 -170 -5z
m282 -12 c0 -26 -27 -71 -115 -186 -52 -69 -93 -130 -90 -136 8 -12 147 -12
181 1 15 6 28 9 30 8 1 -2 0 -22 -3 -46 -6 -42 -6 -42 -179 -42 -115 0 -174 4
-174 10 0 23 36 79 122 193 49 64 86 122 83 127 -8 13 -106 13 -141 0 -32 -13
-46 1 -42 40 3 22 9 26 48 31 75 10 280 10 280 0z"/>
<path d="M5554 468 c13 -18 16 -55 16 -196 0 -100 -4 -181 -10 -193 -10 -18
-6 -19 170 -19 180 0 180 0 180 60 0 33 -2 60 -4 60 -2 0 -17 -7 -32 -15 -19
-10 -58 -15 -111 -15 -83 0 -83 0 -83 40 0 40 0 40 58 40 32 0 63 -5 69 -11 8
-8 13 1 18 34 11 69 8 71 -73 68 -72 -2 -72 -2 -72 38 0 41 0 41 83 41 53 0
88 -5 95 -12 18 -18 32 7 32 60 0 42 0 42 -176 42 -175 0 -175 0 -160 -22z
m326 -26 c0 -44 -8 -56 -26 -41 -7 5 -48 9 -96 7 -83 -3 -83 -3 -83 -48 0 -45
0 -45 73 -45 72 0 72 0 72 -30 0 -45 -9 -50 -80 -50 -65 0 -65 0 -65 -45 0
-45 0 -45 83 -48 58 -2 92 2 113 12 29 14 29 14 29 -35 0 -49 0 -49 -162 -49
-163 0 -163 0 -160 184 2 121 -1 192 -8 206 -11 20 -9 20 150 20 160 0 160 0
160 -38z"/>
<path d="M5977 464 c14 -22 17 -53 17 -193 1 -118 -3 -173 -12 -188 -13 -23
-13 -23 70 -23 64 0 79 3 70 12 -7 7 -12 39 -12 75 0 59 1 63 23 63 13 0 31
-8 39 -17 21 -24 58 -99 58 -116 0 -11 17 -16 63 -19 96 -8 103 -2 61 52 -20
25 -43 60 -52 78 -15 31 -15 33 11 60 54 57 54 140 -1 195 -26 25 -40 31 -108
38 -44 4 -116 8 -162 8 -82 1 -82 1 -65 -25z m227 7 c63 -7 83 -13 103 -33 49
-50 48 -136 -3 -189 -31 -33 -28 -48 27 -121 21 -29 35 -55 31 -59 -4 -4 -32
-4 -62 -2 -55 5 -55 5 -78 58 -29 65 -62 98 -94 93 -22 -3 -23 -7 -23 -76 0
-72 0 -72 -58 -72 -57 0 -57 0 -50 27 13 44 7 336 -6 361 -12 22 -11 22 61 21
40 0 108 -4 152 -8z"/>
<path d="M6104 396 c-3 -7 -4 -38 -2 -67 3 -54 3 -54 53 -51 65 5 95 24 95 62
0 41 -40 70 -97 70 -28 0 -46 -5 -49 -14z m114 -12 c27 -19 30 -69 5 -82 -10
-5 -39 -12 -65 -14 -48 -6 -48 -6 -48 53 0 59 0 59 43 59 23 0 53 -7 65 -16z"/>
<path d="M6446 455 c21 -51 20 -342 -2 -373 -15 -22 -15 -22 65 -22 81 0 81 0
70 27 -16 38 -16 342 -1 369 10 20 9 22 -20 28 -17 3 -52 6 -79 6 -48 0 -48 0
-33 -35z m110 17 c7 -5 8 -32 2 -87 -8 -75 -4 -226 8 -288 6 -27 6 -27 -56
-27 -58 0 -60 1 -50 21 13 23 9 343 -4 372 -7 15 -2 17 40 17 27 0 54 -4 60
-8z"/>
<path d="M2420 444 c-57 -52 -80 -100 -80 -171 0 -73 26 -130 75 -171 85 -69
220 -58 296 25 44 47 53 74 53 154 1 66 -3 82 -24 112 -50 71 -74 82 -181 85
-97 4 -97 4 -139 -34z m261 1 c61 -46 87 -120 74 -209 -29 -190 -308 -234
-386 -62 -25 55 -25 145 0 195 11 21 36 52 57 70 37 33 37 33 133 29 77 -2
101 -7 122 -23z"/>
<path d="M2485 384 c-48 -52 -48 -174 0 -224 30 -32 78 -40 115 -20 71 38 81
180 18 248 -32 33 -101 31 -133 -4z m138 -16 c21 -28 34 -110 23 -151 -18 -73
-108 -103 -156 -52 -41 43 -40 169 1 214 30 32 104 27 132 -11z"/>
<path d="M6796 452 c6 -31 -73 -243 -126 -339 -25 -43 -27 -52 -14 -57 20 -8
63 -8 103 0 26 5 30 10 25 26 -3 11 -3 35 1 54 6 34 6 34 85 34 89 0 100 -8
100 -73 0 -35 0 -35 63 -39 100 -8 101 -6 60 68 -19 36 -61 129 -93 207 -59
142 -59 142 -134 145 -76 3 -76 3 -70 -26z m183 -95 c25 -61 64 -150 87 -197
24 -47 40 -88 36 -91 -4 -4 -33 -4 -64 -2 -57 5 -58 6 -58 37 0 17 -7 42 -16
54 -13 20 -24 22 -95 22 -78 0 -80 -1 -90 -27 -6 -16 -9 -40 -7 -55 3 -20 -1
-28 -16 -32 -33 -9 -96 -7 -96 3 0 5 11 28 24 52 44 78 128 301 123 326 -4 22
-2 23 62 23 66 0 66 0 110 -113z"/>
<path d="M6849 343 c-29 -75 -38 -106 -33 -114 3 -5 28 -9 55 -9 63 0 69 14
38 87 -28 66 -45 76 -60 36z m50 -34 c31 -75 29 -79 -30 -79 -37 0 -50 4 -47
13 3 6 13 36 23 65 11 28 22 52 26 52 3 0 16 -23 28 -51z"/>
</g>
</svg>