<?xml version="1.0" encoding="UTF-8"?>
<svg xmlns="http://www.w3.org/2000/svg" viewBox="0 0 1145.000000 226.000000" preserveAspectRatio="xMidYMid meet">
<g fill="#fff" stroke="none">

<path d="M9 833 c-11 -15 -11 -16 1 -5 11 9 1165 12 5696 12 3125 0 5689 -3
5698 -6 14 -5 16 -29 16 -158 1 -102 6 -167 16 -201 8 -28 11 -35 8 -15 -3 19
-8 109 -11 200 -3 138 -7 167 -20 178 -13 9 -1170 12 -5704 12 -5404 0 -5687
-1 -5700 -17z"/>


<path d="M110 2008 c1 -114 -3 -167 -15 -208 -39 -131 -45 -176 -45 -352 0
-177 0 -177 27 -190 28 -13 28 -13 31 -601 2 -587 2 -587 5602 -587 5600 0
5600 0 5602 586 3 575 3 587 23 598 11 6 22 12 24 14 8 5 1 306 -10 384 -5 43
-19 111 -29 150 -15 56 -20 107 -20 216 0 142 0 142 -5595 142 -5595 0 -5595
0 -5595 -152z m11180 5 c0 -104 5 -156 20 -211 27 -104 39 -206 42 -374 2
-147 2 -147 -25 -168 -27 -21 -27 -21 -27 -601 0 -579 0 -579 -5590 -579
-5590 0 -5590 0 -5590 577 0 522 -2 578 -17 595 -9 10 -22 18 -30 18 -10 0
-13 35 -13 178 0 176 6 221 45 352 12 41 16 94 15 203 0 147 0 147 5585 147
5585 0 5585 0 5585 -137z"/>
<path d="M2150 1005 c-7 -8 -17 -12 -23 -8 -19 12 -66 11 -77 -2 -8 -10 -6
-17 10 -28 18 -12 20 -19 11 -35 -8 -15 -7 -23 4 -32 14 -11 14 -15 0 -30 -11
-12 -13 -20 -6 -25 6 -3 9 -18 6 -33 -2 -14 1 -32 6 -39 6 -7 8 -21 4 -30 -5
-10 -8 -28 -9 -40 -1 -12 -4 -25 -9 -29 -4 -4 0 -16 9 -26 14 -15 15 -20 3
-34 -7 -9 -13 -31 -14 -49 0 -18 -8 -42 -18 -53 -15 -16 -16 -21 -3 -31 8 -7
17 -8 20 -3 3 5 34 7 70 5 47 -4 66 -2 72 8 12 19 15 41 8 59 -4 8 -7 66 -9
127 -1 84 1 110 10 103 7 -6 16 -5 23 2 12 12 16 3 13 -33 -1 -8 8 -24 19 -34
11 -10 20 -24 20 -31 0 -7 10 -20 22 -28 12 -9 19 -16 15 -16 -9 0 73 -109 97
-129 9 -7 29 -14 46 -16 16 -1 36 -7 43 -14 30 -24 58 60 37 113 -5 13 -6 27
-3 30 5 5 8 171 3 186 -1 3 -2 36 -2 73 0 59 3 71 22 84 17 12 19 18 9 29 -7
8 -19 14 -28 12 -9 -1 -22 1 -29 6 -8 5 -20 2 -31 -8 -16 -15 -19 -15 -31 -1
-12 14 -15 14 -32 -2 -13 -11 -17 -25 -13 -42 7 -35 11 -176 4 -176 -13 0 -57
43 -63 63 -4 12 -18 30 -31 40 -13 11 -22 22 -19 24 6 7 -21 29 -38 32 -21 3
-39 17 -33 26 6 9 -10 22 -47 37 -21 10 -29 9 -38 -2z m55 -15 c24 -9 26 -12
14 -27 -8 -9 -9 -14 -3 -10 7 4 17 0 24 -8 10 -12 7 -13 -14 -9 -14 2 -26 0
-26 -4 0 -10 46 -10 56 1 9 9 46 -12 39 -22 -2 -5 6 -16 19 -25 14 -8 28 -26
32 -38 3 -13 21 -36 38 -51 17 -16 30 -33 29 -38 -2 -5 2 -9 7 -9 6 0 10 10
11 23 2 51 -2 164 -7 188 -7 34 19 59 34 32 10 -17 11 -17 31 1 12 11 25 15
33 10 7 -5 20 -7 30 -6 25 4 33 -18 9 -25 -12 -3 -21 -13 -22 -22 -1 -30 -1
-136 1 -141 5 -15 2 -181 -3 -186 -3 -3 -2 -17 3 -30 10 -26 7 -84 -5 -104 -7
-11 -10 -10 -19 1 -6 8 -26 14 -43 15 -21 1 -42 10 -56 25 -40 42 -87 106 -81
112 3 3 -4 10 -15 17 -12 6 -21 17 -21 24 0 7 -9 21 -20 31 -12 10 -19 26 -17
34 2 9 -2 28 -9 42 -8 16 -9 30 -3 40 13 21 11 46 -6 63 -14 14 -18 14 -34 -2
-16 -16 -17 -19 -2 -35 14 -17 14 -20 0 -30 -13 -10 -15 -32 -14 -132 2 -72
-2 -125 -8 -133 -8 -10 -7 -12 4 -10 10 2 14 -6 14 -27 0 -30 0 -30 -65 -30
-36 0 -70 -3 -76 -7 -6 -4 -14 -5 -18 -1 -9 9 24 42 37 37 7 -2 17 4 24 14 9
15 8 19 -2 19 -8 0 -13 -3 -12 -6 1 -3 -2 -8 -8 -11 -11 -6 -14 59 -3 66 17
11 29 -8 16 -24 -9 -12 -5 -11 10 2 19 17 21 21 7 28 -8 5 -15 15 -15 22 0 8
-7 17 -16 20 -9 4 -12 11 -7 18 4 7 8 22 9 33 1 11 4 28 9 38 4 9 2 23 -3 30
-16 19 -8 48 17 69 13 10 19 18 14 18 -5 0 -14 -5 -20 -11 -6 -6 -17 -8 -23
-4 -8 5 -3 17 17 37 25 27 26 30 6 24 -29 -9 -38 9 -15 32 18 18 18 19 -11 30
-16 6 -26 15 -23 20 6 10 56 9 73 -1 6 -4 16 0 23 8 7 8 16 13 20 10 4 -2 20
-9 35 -15z"/>
<path d="M3811 1006 c-10 -11 -8 -17 7 -28 10 -7 18 -23 17 -35 -1 -13 6 -30
16 -39 10 -9 16 -20 14 -24 -5 -8 12 -26 30 -32 6 -1 9 -7 7 -11 -1 -4 9 -23
24 -42 14 -19 27 -41 28 -49 1 -7 7 -20 13 -27 6 -8 10 -39 8 -69 -2 -30 1
-60 6 -66 5 -6 -1 -25 -16 -46 -19 -28 -22 -38 -12 -46 13 -11 76 -10 95 2 6
3 13 2 16 -2 6 -11 46 -10 63 1 10 6 10 13 -2 30 -8 12 -11 28 -6 35 4 7 6 32
5 57 -1 25 2 47 7 51 5 3 5 14 -2 26 -9 17 -6 26 25 57 20 20 36 42 36 48 0 6
7 16 15 23 9 7 14 17 13 22 -2 5 14 27 34 49 21 22 36 44 33 49 -3 4 7 15 21
25 24 16 25 17 9 35 -18 20 -67 23 -93 6 -7 -4 -18 -4 -25 1 -31 22 -66 3 -62
-34 1 -15 -2 -37 -8 -50 -7 -16 -7 -27 3 -38 8 -9 8 -15 2 -15 -6 0 -14 5 -17
10 -5 8 -11 7 -21 -1 -7 -6 -12 -15 -9 -19 3 -4 -1 -13 -9 -19 -10 -8 -16 -8
-24 2 -11 13 -45 86 -46 99 -1 3 -4 10 -8 14 -4 4 -3 13 3 20 15 19 -37 52
-59 37 -10 -5 -17 -16 -17 -24 0 -8 -4 -14 -10 -14 -5 0 -10 5 -10 12 0 24
-24 38 -44 26 -12 -7 -22 -8 -28 -2 -6 6 -14 5 -22 -5z m81 -15 c-1 -7 2 -19
8 -25 5 -7 7 -16 3 -20 -16 -16 -10 -35 10 -33 23 2 39 25 29 42 -11 18 -9 47
4 52 7 2 23 -1 35 -8 21 -11 21 -13 6 -24 -20 -14 -22 -26 -5 -22 7 1 13 -2
13 -8 6 -40 72 -148 86 -140 4 3 6 12 3 19 -3 8 0 17 5 21 6 3 9 10 6 15 -3 5
-1 11 4 14 5 4 12 2 15 -3 4 -5 2 -13 -4 -16 -12 -8 5 -35 22 -35 6 0 6 6 -1
14 -10 11 -8 16 5 24 15 8 16 13 5 26 -8 10 -10 23 -5 38 5 13 8 36 9 53 0 37
28 41 63 10 23 -19 24 -19 20 -1 -2 15 4 20 34 22 50 5 68 -17 32 -41 -15 -9
-24 -12 -20 -7 3 6 1 14 -6 18 -7 4 -10 4 -6 -1 4 -4 3 -14 -4 -22 -6 -8 -7
-13 -2 -11 17 6 14 -17 -6 -45 -12 -15 -25 -25 -31 -22 -9 6 -13 -7 -10 -33 1
-7 -5 -15 -14 -18 -8 -3 -15 -14 -15 -23 0 -9 -16 -32 -35 -51 -27 -26 -38
-31 -47 -22 -7 7 -16 12 -21 12 -5 0 5 -13 23 -30 18 -17 29 -34 24 -41 -5 -9
-11 -7 -21 6 -9 13 -16 16 -24 8 -7 -7 -3 -15 14 -25 19 -13 23 -24 21 -57 -1
-23 -4 -45 -8 -48 -3 -4 1 -17 9 -30 9 -13 14 -23 13 -24 -16 -6 -60 -4 -64 3
-3 4 -10 5 -16 2 -17 -11 -87 -14 -92 -5 -3 5 4 19 17 33 23 24 26 36 15 53
-3 6 -5 35 -3 65 2 39 -2 60 -13 73 -8 9 -12 17 -7 17 4 0 0 12 -10 26 -9 14
-14 31 -12 39 3 7 -1 12 -11 11 -9 0 -17 6 -17 14 0 8 -4 21 -9 29 -6 10 -5
12 2 7 7 -4 12 -3 12 3 0 17 -18 21 -24 5 -3 -8 -10 -12 -16 -9 -6 4 -8 10 -5
14 2 5 -4 16 -13 25 -19 16 -23 71 -8 95 10 16 42 9 38 -8z"/>
<path d="M5880 994 c-7 -7 -8 -19 -4 -26 10 -16 12 -45 14 -238 2 -149 -5
-200 -30 -215 -8 -5 -6 -13 6 -26 9 -10 20 -17 23 -15 4 3 40 5 81 7 93 2 103
9 82 52 -9 18 -17 55 -18 82 -2 50 -2 50 74 51 66 1 97 5 122 14 3 1 8 2 11 2
15 -2 90 78 84 88 -4 6 1 22 10 36 9 13 13 30 8 36 -4 7 -7 24 -7 38 -1 14 -8
37 -17 50 -22 33 -75 64 -84 50 -5 -7 -12 -5 -20 7 -12 16 -31 18 -169 20
-120 1 -158 -2 -166 -13z m331 -17 c6 -9 7 -23 4 -30 -3 -6 2 -2 11 10 13 18
20 21 35 12 11 -5 17 -14 14 -20 -4 -5 -11 -7 -16 -4 -10 7 -12 -8 -2 -18 3
-4 12 1 19 11 13 16 15 15 32 -7 11 -13 18 -35 18 -50 -1 -14 2 -31 7 -38 5
-7 2 -22 -8 -37 -9 -14 -14 -30 -10 -36 6 -10 -60 -80 -74 -78 -3 0 -8 -1 -11
-2 -24 -9 -57 -13 -125 -14 -80 -1 -80 -1 -81 -59 0 -32 3 -60 8 -63 5 -3 6
-14 3 -25 -4 -11 -3 -18 2 -17 4 2 8 -1 8 -7 0 -12 -9 -13 -95 -16 -75 -2
-103 7 -78 25 24 18 31 71 28 226 -3 185 -4 213 -14 228 -4 7 -5 16 -2 21 3 5
76 8 162 8 137 -2 157 -4 165 -20z"/>
<path d="M6053 923 c4 -6 1 -15 -6 -20 -20 -12 -39 -51 -28 -58 6 -3 10 -13
10 -23 3 -62 4 -63 28 -46 25 16 48 10 37 -9 -4 -7 1 -4 12 5 17 17 19 17 38
0 17 -15 19 -15 14 -1 -4 9 2 23 13 32 25 22 24 48 -1 80 -17 21 -27 25 -51
20 -21 -4 -36 0 -51 13 -12 11 -18 14 -15 7z m67 -30 c23 5 33 2 45 -16 8 -12
15 -29 15 -38 0 -20 -35 -53 -49 -45 -5 4 -13 2 -16 -4 -5 -8 -11 -7 -21 1
-11 9 -17 9 -28 0 -12 -10 -17 -8 -25 7 -6 11 -8 22 -4 25 3 4 1 13 -6 20 -17
21 25 73 45 56 8 -6 27 -9 44 -6z"/>
<path d="M2646 932 c-9 -10 -13 -22 -9 -26 11 -11 12 -66 1 -72 -5 -3 -4 -11
2 -19 7 -9 8 -15 1 -20 -7 -4 -7 -12 1 -25 9 -14 9 -22 -1 -33 -8 -11 -9 -17
-1 -22 8 -5 8 -11 1 -19 -8 -9 -6 -18 9 -31 17 -16 18 -20 5 -38 -10 -14 -11
-25 -5 -32 7 -9 5 -16 -5 -25 -11 -9 -12 -16 -5 -25 7 -8 4 -17 -10 -30 -15
-13 -17 -21 -9 -31 9 -11 15 -11 34 2 13 9 26 11 29 6 7 -12 87 -12 104 1 8 6
16 6 25 -1 14 -12 35 -11 54 1 6 4 14 4 17 -1 9 -15 92 -14 105 2 6 7 11 18
10 22 -1 5 1 17 5 27 5 9 5 25 0 35 -4 9 -6 21 -5 26 1 4 -3 14 -10 22 -9 11
-15 11 -34 -2 -13 -9 -52 -17 -86 -20 -34 -2 -64 -6 -67 -9 -3 -2 -11 0 -18 6
-14 11 -9 35 13 61 10 11 11 18 3 23 -6 3 -9 3 -8 -2 2 -4 -1 -8 -7 -8 -17 0
-23 -59 -7 -77 8 -10 18 -15 23 -12 5 2 36 6 69 9 34 2 72 11 86 19 13 9 25
13 26 9 0 -5 2 -12 3 -18 1 -5 5 -18 10 -27 4 -10 4 -26 0 -35 -5 -10 -9 -25
-9 -33 -1 -17 -83 -24 -103 -8 -7 5 -13 5 -17 0 -10 -16 -51 -8 -50 9 1 11 -5
15 -17 12 -10 -3 -17 -10 -16 -17 2 -12 -80 -18 -98 -7 -5 3 -14 6 -20 6 -21
0 -19 16 4 28 14 7 26 18 29 25 3 11 -2 10 -20 -2 -38 -25 -42 -6 -7 30 24 25
29 36 21 46 -5 7 -11 16 -11 21 -1 4 -3 6 -4 5 -2 -2 -12 3 -21 11 -15 13 -15
15 4 33 22 21 28 37 7 19 -21 -16 -28 -1 -12 23 16 22 19 37 8 35 -20 -3 -24
2 -13 16 10 12 16 13 28 3 14 -11 15 -10 8 7 -5 11 -9 25 -9 32 0 7 -5 11 -10
10 -6 -1 -11 10 -11 25 -1 14 -4 30 -8 34 -4 4 -3 13 3 21 9 10 15 10 25 2 9
-7 19 -7 32 0 29 15 118 7 114 -10 -2 -9 3 -8 16 4 37 33 150 14 128 -22 -4
-5 -1 -13 5 -16 7 -5 3 -15 -10 -29 -16 -16 -30 -22 -56 -20 -20 2 -40 6 -45
9 -5 3 -18 1 -28 -4 -13 -7 -22 -7 -29 0 -5 5 -16 7 -24 4 -13 -5 -15 -24 -10
-92 1 -13 19 -12 41 2 13 8 37 13 84 18 17 2 19 -5 20 -58 1 -60 1 -60 -34
-57 -33 3 -74 37 -65 53 3 3 -7 4 -20 1 -14 -2 -25 -11 -25 -19 0 -13 3 -13
16 -2 13 11 19 9 37 -13 25 -30 80 -44 96 -24 11 13 9 105 -3 124 -3 6 -19 8
-34 5 -15 -3 -34 -6 -44 -7 -9 -1 -23 -8 -31 -14 -20 -17 -34 3 -31 42 4 35
11 43 26 28 7 -7 17 -8 29 -2 10 6 27 6 41 1 13 -4 29 -6 36 -4 7 3 22 -3 32
-12 16 -15 22 -15 35 -5 12 10 13 16 4 26 -8 10 -8 18 0 27 6 8 7 17 1 23 -5
5 -5 15 -1 23 11 18 65 -62 67 -99 1 -28 28 -85 44 -95 8 -5 8 -11 0 -20 -8
-10 -7 -22 5 -45 9 -18 14 -34 11 -38 -3 -3 -1 -11 5 -19 6 -7 8 -13 3 -13 -4
0 3 -11 16 -25 18 -19 20 -27 11 -38 -14 -18 4 -35 36 -33 28 3 89 61 73 71
-7 4 1 20 24 45 22 25 34 46 31 59 -6 31 16 37 37 11 13 -16 15 -26 8 -35 -7
-8 -2 -22 15 -46 14 -18 23 -39 21 -46 -3 -6 2 -17 10 -23 8 -7 14 -9 14 -4 0
5 7 -2 16 -14 36 -52 96 -12 100 67 1 31 9 61 22 79 19 26 20 31 6 50 -14 20
-14 23 3 29 34 12 42 23 33 47 -6 17 -4 25 12 35 11 7 17 15 14 18 -3 4 -1 12
5 20 6 7 8 13 3 13 -4 0 3 11 15 24 22 24 22 24 -8 45 -16 12 -32 17 -35 12
-3 -5 -20 -8 -37 -7 -16 1 -32 -1 -35 -6 -3 -5 -9 -6 -14 -3 -15 9 -29 -21
-31 -70 -2 -26 -11 -63 -20 -82 -14 -28 -19 -31 -29 -18 -9 11 -9 19 -2 28 14
17 -12 59 -32 51 -17 -7 -17 27 0 47 12 13 10 19 -14 41 -21 21 -36 26 -69 24
-49 -2 -79 -22 -62 -42 6 -7 8 -18 4 -24 -4 -6 -8 -23 -10 -38 -6 -44 -39
-109 -53 -104 -10 3 -10 7 -1 18 9 11 8 18 -4 32 -11 12 -13 22 -7 28 6 6 4
19 -4 36 -12 22 -12 30 -1 45 16 21 2 45 -21 36 -8 -3 -20 -1 -27 4 -17 14
-121 10 -139 -5 -13 -10 -18 -9 -28 3 -14 17 -105 21 -115 5 -4 -6 -12 -7 -18
-3 -19 12 -98 13 -119 2 -13 -7 -23 -7 -32 0 -10 8 -17 6 -30 -7z m482 -5 c7
-5 19 -6 27 -3 20 7 29 -11 11 -21 -8 -4 -15 -12 -15 -18 -1 -5 -6 -10 -13
-10 -6 0 -13 -6 -16 -13 -3 -11 0 -12 17 -3 18 10 23 9 30 -11 7 -17 5 -26 -7
-35 -9 -7 -12 -13 -8 -13 5 0 3 -7 -4 -15 -8 -9 -9 -15 -2 -15 6 0 14 5 18 11
4 8 9 8 17 0 7 -7 5 -17 -9 -33 -10 -13 -15 -20 -10 -16 12 10 46 -10 46 -27
0 -7 9 -13 19 -12 17 1 18 3 4 24 -14 21 -13 28 6 74 13 28 20 53 17 56 -3 3
-1 14 5 25 7 14 7 23 -1 33 -28 33 82 45 117 12 21 -18 21 -22 8 -37 -8 -9
-13 -26 -11 -37 3 -13 -4 -29 -15 -39 -20 -18 -20 -18 3 -31 34 -18 38 -16 34
17 -4 36 9 48 23 22 7 -13 7 -22 -1 -30 -7 -7 -5 -18 8 -36 24 -32 34 -33 34
-3 0 12 6 31 13 42 8 11 15 42 16 69 3 60 8 71 27 55 12 -10 14 -10 12 1 -2 8
8 13 27 14 17 1 35 4 42 9 6 4 14 3 17 -2 4 -5 2 -12 -4 -16 -15 -9 -12 -22 4
-22 8 0 15 3 14 6 -1 16 3 22 13 16 7 -5 4 -13 -7 -26 -9 -10 -22 -16 -28 -12
-6 4 -5 0 2 -9 9 -11 10 -18 2 -23 -6 -3 -8 -11 -4 -16 3 -6 -3 -13 -15 -16
-24 -6 -24 -4 -11 -37 8 -22 6 -27 -22 -40 -35 -18 -51 -21 -28 -6 8 5 10 10
4 10 -23 0 -23 -14 2 -37 14 -13 22 -28 18 -35 -5 -8 -11 -6 -19 6 -11 14 -14
14 -18 2 -3 -8 1 -17 10 -20 12 -5 13 -9 3 -21 -7 -8 -13 -37 -14 -64 -2 -28
-9 -57 -16 -66 -15 -18 -66 -16 -62 3 1 6 -2 13 -8 13 -5 1 -15 2 -22 3 -7 0
-12 15 -13 31 0 22 4 29 15 27 8 -2 11 0 7 4 -13 13 -38 13 -31 1 3 -7 -4 -1
-16 12 -13 16 -17 28 -11 34 12 12 2 38 -24 59 -20 17 -20 17 4 13 13 -2 21
-1 17 2 -24 24 -58 -6 -61 -53 -2 -27 -14 -46 -26 -39 -5 4 -9 0 -9 -8 0 -8
-7 -20 -15 -27 -11 -9 -13 -16 -6 -23 13 -13 -36 -60 -66 -63 -25 -3 -39 11
-23 21 15 9 12 21 -7 41 -10 10 -19 21 -19 26 -1 4 -3 11 -4 16 -1 4 -2 11 -1
15 1 4 -6 21 -15 38 -11 23 -12 34 -4 44 8 9 8 15 0 20 -15 9 -46 77 -45 100
0 11 -14 41 -32 66 -17 26 -30 49 -27 51 7 8 119 3 132 -5z"/>
<path d="M4474 938 c-3 -5 -21 -6 -40 -3 -21 3 -46 -1 -62 -9 -28 -15 -101
-86 -88 -86 4 0 -2 -13 -13 -28 -15 -21 -17 -32 -9 -40 8 -8 7 -18 -5 -35 -9
-14 -13 -28 -10 -31 4 -4 8 -20 9 -37 2 -17 12 -41 24 -54 12 -13 22 -30 24
-39 5 -37 94 -104 114 -84 5 5 13 3 21 -5 14 -18 105 -12 136 7 11 7 25 14 30
15 16 3 65 53 88 90 28 46 31 159 6 216 -16 36 -62 90 -78 90 -3 0 -17 8 -31
17 -28 19 -108 30 -116 16z m116 -26 c14 -9 27 -17 30 -17 3 0 17 -12 31 -25
40 -38 56 -86 54 -167 -1 -60 -6 -78 -29 -113 -16 -24 -33 -40 -40 -37 -8 3
-13 -1 -12 -11 0 -9 -5 -16 -11 -14 -7 1 -22 -7 -33 -18 -11 -11 -35 -21 -52
-21 -18 -1 -43 -3 -56 -4 -12 -1 -27 5 -32 14 -6 12 -12 13 -20 5 -21 -21
-101 33 -106 73 -2 8 -12 25 -24 38 -12 13 -22 37 -24 54 -1 17 -5 33 -9 37
-3 4 2 19 13 34 17 25 18 29 4 34 -13 5 -13 10 6 36 12 16 18 30 14 30 -13 0
50 61 78 76 16 8 41 12 62 9 19 -3 37 -2 40 3 8 14 88 3 116 -16z"/>
<path d="M4460 833 c-8 -3 -23 -12 -32 -20 -9 -8 -22 -12 -29 -7 -7 4 -10 3
-5 -4 3 -6 2 -22 -4 -36 -6 -17 -6 -27 1 -32 6 -3 9 -20 8 -38 -2 -17 3 -42
11 -56 7 -14 13 -26 12 -27 -9 -13 3 -23 26 -23 15 0 33 -5 40 -12 8 -8 19 -2
44 26 18 21 33 43 33 49 1 7 7 11 13 9 10 -2 10 3 2 19 -8 14 -9 24 -2 31 7 7
3 21 -10 44 -11 18 -17 37 -14 42 10 17 -66 45 -94 35z m55 -13 c16 0 65 -99
53 -106 -5 -3 -7 -13 -4 -21 4 -9 1 -22 -5 -29 -6 -8 -8 -14 -3 -14 4 0 -7
-16 -26 -35 -21 -22 -37 -31 -44 -26 -6 5 -22 11 -36 13 -14 1 -23 5 -21 8 2
3 -2 16 -9 30 -8 14 -13 39 -11 56 1 18 -2 35 -8 38 -32 20 48 103 87 90 8 -2
19 -4 27 -4z"/>
<path d="M4804 938 c-3 -5 -9 -6 -13 -4 -4 3 -18 -2 -30 -10 -20 -14 -21 -18
-7 -33 9 -10 14 -32 12 -59 -2 -23 1 -45 6 -48 5 -3 6 -13 2 -23 -4 -9 -8 -59
-9 -111 -2 -52 -8 -108 -14 -124 -12 -30 1 -62 21 -50 6 4 30 6 54 6 24 -1 46
3 49 9 4 5 10 7 15 4 14 -9 33 24 24 42 -4 10 -9 27 -10 38 -1 11 -4 29 -6 40
-2 15 2 19 17 17 24 -4 45 -23 48 -43 2 -8 7 -21 12 -29 5 -8 11 -26 13 -40 5
-37 21 -51 42 -40 12 6 28 7 43 1 16 -6 28 -6 35 1 8 8 15 8 25 0 8 -7 17 -9
21 -5 11 11 45 13 51 3 3 -5 16 -6 28 -2 12 4 43 7 70 6 26 -1 50 3 54 9 10
17 12 76 2 83 -5 3 -5 13 1 25 6 10 10 25 9 32 -5 39 6 33 50 -28 32 -43 48
-75 45 -88 -4 -24 14 -50 29 -40 14 9 63 10 115 2 26 -3 46 -2 51 5 12 16 -3
50 -33 73 -14 11 -23 23 -20 26 3 3 -15 28 -41 56 -26 27 -48 57 -49 65 -1 8
-10 24 -19 34 -17 19 -15 22 73 104 69 65 88 87 78 95 -17 13 -194 11 -208 -3
-7 -7 -6 -16 3 -28 11 -15 7 -23 -27 -61 -36 -39 -41 -42 -52 -27 -8 12 -9 22
-2 35 5 10 7 21 4 25 -3 3 2 14 11 24 15 17 15 20 0 35 -13 13 -19 14 -31 4
-8 -7 -17 -8 -20 -2 -3 5 -33 9 -66 9 -64 -1 -91 -16 -65 -38 8 -6 17 -27 21
-46 3 -19 10 -37 15 -40 5 -3 6 -11 2 -17 -4 -7 -8 -66 -9 -132 -1 -75 -6
-129 -13 -144 -13 -23 -13 -23 -39 2 -15 14 -31 26 -37 26 -5 1 -10 5 -10 11
0 5 -6 15 -12 22 -7 6 -13 19 -13 28 0 9 -5 21 -12 28 -8 8 -8 12 -1 12 33 0
90 128 64 144 -5 4 -8 16 -6 28 5 24 -30 78 -49 78 -8 0 -19 7 -26 15 -7 9
-15 13 -18 11 -2 -3 -13 -1 -23 4 -12 7 -20 7 -24 0 -5 -8 -11 -8 -20 0 -9 7
-15 8 -19 1 -5 -8 -78 -8 -96 0 -14 6 -62 4 -66 -3z m66 -7 c18 -8 91 -8 96 0
4 7 10 6 19 -1 9 -8 15 -8 20 0 4 7 12 7 26 0 10 -6 19 -8 19 -4 0 4 8 0 18
-8 9 -8 25 -18 36 -22 18 -6 18 -7 0 -29 -15 -17 -15 -19 -2 -8 23 17 39 5 34
-24 -3 -14 0 -27 5 -31 10 -6 5 -67 -7 -85 -3 -5 -12 -9 -19 -9 -8 0 -12 -6
-9 -14 3 -8 -3 -19 -16 -26 -16 -8 -19 -15 -11 -24 6 -7 12 -25 13 -39 1 -14
5 -25 8 -24 3 1 5 -1 5 -4 0 -13 28 -38 36 -33 5 3 13 -4 17 -15 4 -11 10 -20
15 -20 4 -1 7 -3 7 -6 0 -3 -2 -4 -3 -2 -2 1 -11 -4 -19 -11 -13 -10 -18 -9
-28 3 -15 18 -31 20 -28 3 2 -7 -4 -11 -12 -9 -22 5 -53 5 -69 0 -18 -5 -32
41 -18 59 9 12 8 13 -15 16 -10 1 -17 20 -20 53 -1 7 -3 11 -5 9 -3 -2 -16 2
-31 10 -23 11 -29 11 -40 0 -11 -11 -12 -18 -2 -36 9 -16 9 -25 1 -33 -15 -15
-14 -28 2 -24 6 1 12 -7 12 -18 0 -11 -4 -20 -10 -20 -5 0 -15 -3 -21 -7 -5
-4 -29 -7 -51 -6 -23 0 -46 -3 -51 -6 -17 -10 -23 11 -11 41 6 15 12 71 14
123 1 52 5 102 9 111 4 10 3 20 -2 23 -5 3 -8 25 -6 48 2 28 -3 49 -13 60 -13
15 -13 18 6 28 12 6 21 7 21 3 0 -4 4 -3 10 3 8 8 55 12 70 5z m456 -2 c3 -6
12 -5 20 2 11 9 18 9 26 1 13 -13 2 -32 -20 -32 -12 0 -13 -3 -4 -12 17 -17
15 -22 -15 -60 -18 -22 -20 -27 -6 -15 15 13 23 15 28 7 4 -7 3 -16 -3 -22
-14 -14 -4 -38 14 -31 8 3 11 9 8 14 -3 5 -10 6 -16 3 -7 -4 -8 -2 -4 5 4 6
11 9 16 6 5 -3 23 13 41 35 18 22 38 40 46 40 17 0 16 5 -3 35 -9 14 -15 25
-13 26 20 6 201 4 204 -2 3 -4 -12 -21 -33 -37 -20 -17 -62 -55 -92 -84 -55
-55 -55 -55 -33 -71 13 -10 20 -25 18 -36 -2 -11 3 -22 11 -25 8 -3 14 -12 14
-21 0 -8 3 -14 8 -13 11 4 53 -37 56 -55 1 -8 14 -25 28 -38 15 -13 28 -33 30
-44 3 -17 -2 -19 -37 -16 -73 7 -117 6 -122 -2 -9 -15 -23 5 -19 28 3 14 -3
34 -15 49 -10 13 -19 29 -19 35 0 6 -4 11 -9 11 -5 0 -19 16 -32 36 -20 33
-23 35 -35 19 -7 -9 -10 -23 -8 -30 3 -7 1 -23 -5 -34 -6 -11 -7 -22 -2 -25 5
-3 8 -23 6 -43 -2 -38 -2 -38 -61 -39 -32 -1 -63 -3 -69 -4 -23 -5 -25 2 -9
32 13 25 17 62 18 158 1 103 4 124 16 122 12 -3 11 0 -2 15 -9 10 -19 32 -23
50 -3 17 -13 37 -21 43 -7 7 -12 16 -9 20 7 11 124 10 131 -1z"/>
<path d="M4903 829 c-28 -10 -36 -26 -18 -33 11 -4 13 -11 5 -31 -7 -18 -6
-25 3 -26 60 -5 83 -3 100 11 24 20 32 56 15 66 -21 13 -84 21 -105 13z"/>
<path d="M6391 934 c-17 -12 -19 -19 -11 -29 7 -8 9 -19 6 -24 -4 -5 -2 -13 4
-16 6 -4 9 -20 6 -36 -3 -21 1 -33 14 -42 18 -13 18 -13 -1 -25 -15 -10 -17
-17 -10 -31 7 -12 6 -22 -1 -29 -9 -9 -9 -17 0 -34 6 -13 9 -36 7 -53 -10 -59
-12 -70 -15 -72 -1 -2 -3 -9 -4 -15 -4 -23 14 -36 47 -33 17 1 36 -1 41 -3 36
-20 119 3 86 23 -6 3 -8 11 -4 16 3 5 1 15 -4 22 -5 7 -9 27 -7 45 1 18 -2 35
-7 38 -5 3 -4 12 2 19 7 8 7 15 1 19 -10 7 -10 24 2 43 4 6 3 14 -3 18 -6 4
-5 13 2 25 9 14 9 22 -1 33 -8 11 -9 17 -1 22 8 5 8 11 -1 21 -9 11 -6 21 16
50 20 26 24 39 16 47 -15 15 -88 19 -112 6 -14 -7 -24 -7 -33 0 -9 7 -19 6
-35 -5z m68 -5 c24 13 103 9 108 -6 2 -5 -4 -16 -14 -24 -9 -8 -14 -9 -10 -3
3 6 0 11 -8 11 -11 0 -12 -4 -3 -14 8 -10 7 -18 -6 -32 -16 -17 -16 -19 0 -25
13 -5 14 -10 6 -18 -9 -9 -9 -15 0 -26 9 -10 9 -18 0 -32 -7 -12 -8 -21 -2
-25 6 -4 8 -11 4 -16 -3 -5 -11 -6 -17 -2 -8 4 -7 1 1 -9 11 -14 10 -18 -5
-28 -16 -10 -16 -11 -1 -6 20 6 34 -9 18 -19 -6 -4 -7 -12 -3 -18 11 -18 12
-51 1 -63 -5 -8 -3 -14 8 -18 9 -3 14 -13 10 -21 -3 -8 -1 -17 5 -20 26 -17
-25 -26 -80 -16 -2 1 3 9 10 19 13 16 12 16 -6 1 -25 -20 -80 -20 -81 1 0 8 3
20 7 25 3 6 7 17 7 25 1 8 4 30 7 49 3 19 0 40 -6 47 -6 8 -8 21 -5 30 6 15 8
15 26 -1 29 -26 24 -10 -6 20 -14 14 -22 30 -18 37 5 8 11 6 19 -5 7 -10 16
-17 20 -17 4 0 2 7 -5 15 -6 8 -9 19 -6 24 4 6 -2 15 -13 20 -23 13 -20 58 4
77 12 9 12 14 1 29 -7 10 -18 15 -24 11 -6 -3 -13 -2 -17 3 -8 15 27 32 42 20
8 -7 18 -7 32 0z"/>
<path d="M6643 927 c-25 -27 -27 -94 -5 -120 14 -16 17 -16 56 6 36 21 46 22
79 12 38 -11 38 -11 11 -35 -34 -32 -144 -176 -164 -216 -15 -28 -14 -33 0
-60 17 -29 17 -29 194 -30 118 -1 179 3 184 10 3 6 7 22 8 36 2 42 5 46 15 21
5 -14 8 -30 5 -38 -10 -25 46 -40 65 -17 9 11 15 10 34 -2 16 -11 25 -12 30
-4 5 8 10 8 20 0 10 -8 15 -8 20 0 5 7 11 8 19 1 8 -7 20 -6 38 3 19 10 29 11
37 3 14 -14 120 -17 128 -3 12 19 10 46 -4 58 -11 9 -11 14 2 28 13 15 14 20
3 26 -18 11 -57 13 -64 3 -2 -5 -11 -6 -19 -3 -8 3 -20 2 -27 -2 -19 -12 -37
-13 -43 -4 -3 5 -12 7 -20 3 -23 -8 -18 5 20 51 25 31 32 45 24 53 -12 12 -16
60 -6 70 4 3 15 -4 24 -16 18 -23 18 -23 53 21 19 23 34 48 32 55 -1 6 2 14 7
17 13 9 -11 77 -32 90 -13 8 -23 3 -49 -23 -29 -29 -33 -31 -39 -14 -10 29
-37 46 -56 38 -27 -11 -103 -14 -109 -3 -11 17 -35 -14 -28 -36 6 -18 5 -19
-8 -8 -20 16 -38 -4 -34 -39 3 -34 14 -49 30 -43 8 3 17 1 21 -5 4 -8 13 -7
28 1 23 13 76 19 90 11 4 -2 -2 -18 -13 -34 -12 -16 -19 -29 -17 -29 2 0 -11
-16 -29 -36 -19 -19 -34 -39 -34 -44 0 -4 -22 -32 -50 -61 -34 -37 -50 -48
-50 -36 0 9 1 19 3 21 1 2 -6 13 -16 24 -19 20 -19 20 -54 -4 -29 -19 -45 -23
-87 -20 -28 2 -53 4 -55 5 -2 1 13 21 33 46 21 25 35 45 32 45 -3 0 5 11 17
24 38 40 86 103 108 140 19 32 20 39 7 58 -16 24 -61 32 -90 17 -11 -6 -24 -7
-31 -2 -10 8 -97 10 -104 3 -8 -7 -30 -5 -40 3 -8 6 -18 5 -27 -2 -11 -9 -20
-9 -34 -2 -15 8 -23 6 -39 -12z m72 3 c18 15 36 4 29 -18 -5 -15 -4 -15 6 1 6
9 15 15 20 12 5 -3 11 -2 13 2 7 12 102 9 100 -2 -2 -6 -7 -10 -12 -10 -5 0
-13 -3 -17 -7 -4 -5 2 -8 14 -8 12 0 31 9 42 20 24 24 78 22 92 -4 11 -20 -22
-81 -75 -138 -19 -20 -32 -39 -29 -43 3 -3 -4 -8 -17 -12 -13 -3 -20 -11 -17
-19 5 -14 -17 -37 -27 -27 -4 3 -7 -3 -7 -15 0 -11 -4 -24 -10 -27 -5 -3 -14
-14 -19 -23 -8 -15 -2 -17 52 -19 36 -1 71 4 87 12 15 8 31 11 35 7 5 -4 5 -2
1 5 -3 6 -2 14 3 17 14 9 29 -17 25 -44 -2 -14 -5 -41 -7 -60 -4 -35 -4 -35
-181 -35 -177 -1 -177 -1 -191 27 -11 23 -11 29 0 35 13 8 15 11 15 36 0 6 16
29 35 50 19 21 35 41 35 46 0 12 101 121 112 121 6 0 16 7 23 16 6 9 25 17 42
17 24 1 29 5 21 14 -6 7 -15 10 -22 6 -6 -4 -13 -8 -16 -9 -3 0 -17 -6 -32
-13 -18 -9 -39 -11 -65 -6 -56 12 -73 13 -67 4 2 -5 -9 -15 -25 -23 -36 -19
-48 -7 -48 49 0 50 21 79 49 64 14 -7 23 -7 33 1z m401 -16 c-3 -8 -1 -14 3
-14 5 0 11 7 15 15 4 10 14 14 31 11 15 -3 38 0 51 6 32 15 57 -8 56 -50 0
-24 3 -29 22 -29 12 0 23 5 23 12 0 6 -6 12 -14 12 -7 0 -13 -5 -13 -10 0 -6
-3 -7 -7 -4 -9 10 66 80 80 74 17 -6 38 -75 26 -83 -6 -3 -8 -11 -6 -17 2 -7
-10 -28 -26 -47 -30 -34 -36 -38 -38 -22 0 9 -42 31 -50 27 -9 -6 -1 -76 11
-90 7 -9 5 -16 -7 -26 -14 -12 -16 -12 -8 0 5 10 4 12 -4 7 -6 -4 -9 -12 -5
-17 3 -6 -2 -19 -12 -30 -14 -16 -20 -17 -33 -6 -14 11 -14 10 -3 -5 8 -9 11
-21 8 -27 -3 -5 5 -8 19 -6 14 1 28 -1 30 -5 6 -10 25 -8 43 4 7 4 19 5 27 2
8 -3 17 -2 19 3 7 11 62 7 56 -5 -3 -5 -8 -8 -11 -7 -4 1 -9 -6 -12 -16 -3
-13 1 -21 13 -24 11 -3 16 -13 15 -28 -2 -22 -6 -24 -59 -24 -65 0 -87 15 -68
45 9 14 8 19 -3 24 -11 4 -15 -3 -15 -25 0 -22 -6 -32 -22 -38 -14 -5 -28 -5
-35 1 -7 6 -14 5 -18 -2 -5 -8 -10 -8 -20 0 -10 8 -15 8 -20 0 -5 -8 -14 -6
-31 4 -28 19 -45 20 -41 4 1 -6 -9 -12 -22 -12 -20 0 -24 5 -26 34 -3 29 3 41
33 70 21 19 35 36 32 38 -3 2 4 9 15 15 11 7 20 19 20 27 0 8 6 14 14 12 8 -2
11 3 8 12 -6 16 30 49 44 40 4 -2 11 0 14 6 4 6 3 10 -2 9 -23 -4 -23 4 1 35
14 19 26 36 26 38 0 2 -21 4 -47 4 -35 0 -48 3 -49 14 -2 30 -4 32 -18 21 -11
-9 -16 -9 -22 1 -9 15 -13 50 -7 61 7 13 25 -4 19 -19z"/>
<path d="M7470 932 c-23 -19 -23 -19 8 -41 30 -21 31 -24 17 -44 -9 -14 -11
-27 -5 -36 5 -9 4 -21 -3 -32 -8 -13 -8 -21 2 -32 6 -9 8 -18 3 -21 -10 -6
-10 -96 1 -113 4 -6 3 -14 -1 -17 -5 -3 -8 -15 -7 -28 1 -13 -2 -29 -8 -35
-11 -14 9 -46 23 -38 5 3 11 1 14 -3 8 -13 133 -7 149 7 11 9 17 8 25 -2 12
-14 59 -16 80 -4 6 5 12 5 12 1 0 -3 7 -1 15 6 8 7 15 9 15 5 0 -5 9 0 20 10
21 19 14 40 -13 40 -7 0 -12 8 -12 17 0 26 -21 42 -42 33 -26 -12 -37 -12 -49
-3 -7 5 -17 2 -24 -7 -9 -11 -16 -12 -26 -4 -7 6 -18 8 -24 4 -8 -5 -15 18 -7
28 1 2 -4 11 -11 19 -10 13 -10 17 4 22 9 3 22 2 28 -3 7 -6 21 -10 31 -9 11
1 29 -2 41 -6 30 -9 47 15 49 70 1 35 -3 49 -19 59 -17 12 -23 12 -46 -5 -26
-18 -27 -18 -56 0 -16 11 -29 23 -29 27 0 5 -4 14 -9 22 -7 11 -5 13 7 8 18
-7 44 18 28 28 -7 4 -7 12 1 25 14 23 -3 50 -30 45 -9 -1 -23 2 -29 8 -7 5
-13 6 -13 2 0 -4 -6 -2 -14 4 -11 9 -20 9 -34 2 -12 -7 -22 -7 -29 0 -6 6 -18
3 -33 -9z m62 -1 c10 5 24 6 31 2 6 -4 17 -8 22 -8 6 0 10 -5 10 -12 0 -6 4
-15 8 -20 5 -4 7 -2 5 6 -4 18 32 23 39 5 3 -8 0 -21 -6 -28 -8 -10 -9 -16 -1
-21 19 -11 0 -26 -20 -15 -23 12 -35 -3 -16 -20 8 -6 13 -20 11 -31 -3 -13 2
-19 14 -19 10 0 30 -11 45 -25 15 -14 26 -19 24 -12 -2 7 2 12 7 12 6 0 9 -4
7 -8 -1 -5 2 -6 8 -2 6 3 8 11 5 16 -10 16 5 30 22 20 18 -10 25 -65 12 -99
-7 -19 -13 -22 -32 -16 -12 4 -32 7 -44 6 -24 -2 -39 13 -23 23 5 3 10 11 10
18 0 6 -6 3 -12 -6 -17 -21 -42 -26 -43 -7 0 19 -27 20 -33 1 -3 -8 0 -11 6
-7 17 10 25 -13 11 -30 -10 -12 -10 -15 0 -12 7 2 15 -8 17 -21 5 -30 10 -36
32 -36 9 0 16 -6 15 -12 -4 -20 15 -15 27 7 7 13 16 18 23 13 17 -11 30 -11
44 0 20 14 40 1 38 -25 -1 -12 -7 -22 -12 -21 -5 1 -10 -4 -10 -12 0 -8 3 -13
6 -12 3 1 7 -2 9 -8 1 -5 -2 -11 -8 -11 -5 -1 -11 -3 -12 -4 -10 -9 -71 -3
-80 7 -8 10 -14 11 -25 2 -16 -14 -141 -20 -149 -7 -3 4 -9 6 -14 3 -13 -8
-23 14 -12 28 5 7 8 22 7 35 -1 13 2 25 7 28 4 3 5 11 1 17 -10 16 -11 107 -1
113 4 3 2 13 -4 24 -9 14 -9 22 0 32 7 9 7 19 2 28 -6 10 -4 23 5 37 14 21 13
24 -15 45 -29 21 -30 24 -14 35 12 8 21 10 27 4 7 -7 17 -6 29 0z"/>
<path d="M7669 933 c-7 -7 -6 -13 1 -18 5 -3 10 -19 10 -34 0 -36 22 -54 68
-56 38 -1 87 29 76 47 -3 5 -1 15 5 22 7 9 6 19 -5 35 -15 20 -17 21 -34 6
-15 -14 -19 -14 -29 -1 -14 17 -78 17 -92 -1z m91 -12 c5 -10 6 -21 3 -25 -3
-3 2 -6 11 -6 12 0 16 5 13 14 -3 8 0 20 8 26 11 9 16 7 25 -9 10 -20 7 -25
-13 -22 -4 1 -3 -7 2 -18 14 -26 -14 -47 -60 -46 -47 2 -59 11 -59 45 0 16 -5
32 -10 35 -18 11 -3 20 34 22 26 1 39 -3 46 -16z"/>
<path d="M7880 935 c-10 -13 -10 -19 3 -33 23 -26 30 -76 29 -214 0 -95 -5
-136 -16 -159 -22 -44 -6 -65 34 -44 20 10 30 11 38 3 8 -8 15 -8 26 1 12 10
20 10 38 0 25 -13 26 -13 46 3 10 9 8 16 -12 37 -23 24 -29 52 -13 67 4 4 2
13 -4 20 -5 7 -6 14 -2 17 13 7 53 -11 53 -25 0 -6 12 -25 27 -40 23 -24 25
-32 16 -47 -10 -15 -9 -22 2 -31 9 -8 15 -8 20 0 4 7 11 7 18 2 7 -5 37 -10
68 -11 86 -3 91 12 33 98 -47 71 -47 71 -22 99 13 15 24 34 23 42 -1 8 4 22
11 30 6 8 10 26 7 40 -2 14 -4 33 -4 43 0 21 -78 103 -100 105 -70 7 -198 7
-216 1 -12 -5 -24 -5 -27 -1 -9 14 -63 12 -76 -3z m76 -7 c3 -4 15 -4 27 1 18
6 147 6 216 -1 22 -2 90 -74 90 -95 0 -10 2 -31 5 -46 3 -19 -1 -30 -10 -34
-8 -3 -12 -14 -10 -29 3 -17 -3 -30 -21 -44 -24 -19 -25 -22 -13 -48 8 -15 13
-30 12 -34 -1 -5 2 -8 7 -8 13 0 62 -80 56 -91 -4 -5 -34 -9 -67 -8 -57 2 -61
3 -83 40 -13 20 -29 40 -35 44 -6 4 -15 18 -20 31 -12 30 -49 46 -69 30 -12
-9 -13 -8 -6 4 7 13 6 13 -6 2 -12 -11 -11 -15 4 -23 10 -6 14 -15 10 -22 -12
-19 -13 -46 -3 -52 6 -4 8 -10 5 -15 -3 -5 0 -12 6 -16 8 -5 9 -3 4 7 -8 12
-6 12 8 0 9 -7 14 -17 12 -22 -6 -8 -38 -5 -55 6 -6 4 -18 1 -26 -6 -11 -9
-18 -9 -26 -1 -8 8 -18 7 -39 -3 -35 -19 -43 -6 -23 34 12 25 15 62 14 169 -2
188 -3 202 -17 202 -16 0 -26 17 -18 30 7 11 64 10 71 -2z"/>
<path d="M8015 820 c-13 -15 -13 -17 7 -16 18 1 22 -4 20 -19 -2 -11 -5 -24
-5 -30 -2 -11 82 -25 89 -14 2 5 12 5 21 2 10 -4 14 -2 9 5 -3 6 -2 13 3 16
14 9 1 46 -22 58 -33 17 -106 16 -122 -2z"/>
<path d="M8389 934 c-6 -7 -8 -18 -4 -24 4 -6 2 -16 -4 -23 -6 -8 -6 -18 -1
-27 5 -9 5 -19 -1 -27 -7 -8 -7 -19 1 -33 8 -15 8 -25 1 -34 -8 -9 -7 -18 3
-32 10 -13 11 -23 4 -32 -14 -16 -19 -100 -7 -108 5 -3 6 -11 2 -17 -4 -7 -8
-15 -9 -19 -1 -5 -3 -11 -4 -15 -15 -49 3 -63 76 -62 74 2 91 14 77 56 -9 28
-9 305 0 362 3 17 0 34 -7 40 -18 15 -113 11 -127 -5z m124 -24 c-4 -37 -4
-361 -1 -390 3 -25 2 -25 -67 -25 -66 0 -69 1 -68 23 0 12 2 24 3 27 1 3 3 11
4 18 1 6 8 11 16 9 11 -3 11 0 -2 15 -11 12 -15 32 -13 63 2 37 6 46 23 48 11
2 23 9 25 16 4 9 -1 12 -13 9 -12 -3 -22 3 -29 16 -11 19 -8 25 12 22 11 -2 9
7 -9 35 -12 18 -14 28 -6 36 8 8 8 17 1 30 -9 16 -7 20 10 25 12 3 21 10 21
15 0 5 -4 7 -9 3 -12 -7 -24 12 -17 24 4 5 32 9 64 8 54 -2 57 -3 55 -27z"/>
<path d="M8708 933 c-5 -7 -6 -18 -2 -25 14 -21 11 -62 -4 -80 -9 -10 -12 -18
-8 -18 4 0 -2 -12 -13 -26 -12 -15 -21 -34 -21 -43 0 -9 -9 -33 -20 -54 -11
-20 -17 -37 -14 -37 4 0 1 -7 -6 -15 -6 -8 -9 -18 -6 -23 2 -4 -13 -31 -34
-60 -41 -54 -40 -65 10 -68 14 -1 27 -3 30 -4 3 -1 10 -1 15 0 6 1 23 2 40 2
42 -1 54 13 49 58 -4 31 -1 41 18 54 15 11 25 12 34 5 8 -7 14 -7 19 1 5 8 10
8 20 0 7 -6 17 -10 21 -9 23 4 45 -2 39 -10 -3 -5 -1 -12 5 -16 10 -6 9 -32
-3 -51 -15 -25 48 -43 83 -24 12 6 23 5 36 -4 20 -15 39 -11 67 12 16 15 16
16 -2 36 -11 12 -27 38 -36 59 -9 21 -22 40 -31 44 -9 3 -11 9 -5 17 6 7 -1
32 -20 71 -16 33 -29 65 -29 70 0 6 -10 30 -21 55 -12 25 -27 56 -33 70 -11
23 -16 25 -90 25 -48 0 -81 -5 -88 -12z m183 -46 c10 -26 23 -55 29 -62 7 -8
10 -24 7 -35 -3 -11 -1 -20 4 -20 16 0 57 -104 46 -117 -6 -9 -4 -15 7 -19 9
-4 24 -23 32 -43 8 -19 24 -45 35 -57 16 -17 17 -23 7 -31 -24 -18 -44 -21
-62 -7 -13 9 -24 10 -36 4 -9 -5 -30 -8 -46 -6 -38 5 -36 4 -27 19 11 17 13
39 5 51 -4 6 -7 15 -7 20 0 11 -37 25 -48 19 -5 -3 -17 3 -28 13 -11 10 -20
14 -19 9 5 -21 -1 -27 -14 -16 -10 8 -19 6 -39 -9 -22 -18 -26 -28 -24 -63 2
-41 1 -42 -29 -43 -18 -1 -39 -4 -48 -7 -8 -3 -18 -2 -21 3 -3 4 -16 7 -30 5
-33 -3 -41 11 -15 27 11 7 20 17 20 21 0 5 9 21 20 37 11 15 17 30 13 33 -3 4
0 13 7 22 7 8 10 15 6 15 -3 0 3 17 14 37 11 21 20 44 20 51 0 7 5 22 11 33 9
17 13 18 27 7 15 -11 15 -11 5 2 -19 24 -19 27 -2 46 16 20 19 60 6 82 -14 22
0 27 79 27 78 0 78 0 95 -48z"/>

</g>
</svg>