<?xml version="1.0" standalone="no"?>
<!DOCTYPE svg PUBLIC "-//W3C//DTD SVG 20010904//EN"
 "http://www.w3.org/TR/2001/REC-SVG-20010904/DTD/svg10.dtd">
<svg version="1.0" xmlns="http://www.w3.org/2000/svg"
 width="719.000000pt" height="59.000000pt" viewBox="0 0 719.000000 59.000000"
 preserveAspectRatio="xMidYMid meet">
<metadata>
Created by potrace 1.16, written by Peter Selinger 2001-2019
</metadata>
<g transform="translate(0.000000,59.000000) scale(0.100000,-0.100000)"
fill="#c41e3a" stroke="none">
<path d="M3920 563 c0 -4 10 -17 23 -31 21 -23 22 -29 21 -228 0 -144 -4 -208
-12 -216 -30 -30 -13 -38 77 -38 90 0 113 9 91 35 -6 7 -14 45 -17 83 -6 70
-6 70 95 74 111 3 136 14 180 78 29 43 30 121 2 167 -38 63 -49 66 -337 78
-68 3 -123 2 -123 -2z m318 -119 c26 -18 29 -56 6 -78 -11 -11 -35 -16 -80
-16 -64 0 -64 0 -64 55 0 55 0 55 58 55 36 0 66 -6 80 -16z"/>
<path d="M117 541 c16 -16 21 -37 27 -115 8 -108 -2 -334 -15 -342 -5 -3 -9
-12 -9 -20 0 -11 18 -14 90 -14 95 0 104 5 75 44 -11 15 -15 51 -15 149 0 130
0 130 123 -34 124 -164 124 -164 169 -161 46 4 46 4 50 232 3 225 4 229 28
254 23 26 23 26 -73 26 -53 0 -97 -2 -97 -5 0 -3 7 -16 15 -29 12 -18 15 -46
13 -120 -3 -97 -3 -97 -98 28 -95 125 -95 125 -199 126 -104 0 -105 0 -84 -19z"/>
<path d="M1860 554 c0 -3 15 -24 34 -47 18 -23 64 -89 101 -147 67 -105 67
-105 61 -179 -3 -41 -13 -85 -21 -97 -8 -13 -15 -26 -15 -29 0 -3 47 -5 105
-5 58 0 105 3 105 8 0 4 -7 17 -15 29 -15 21 -20 66 -17 144 2 37 13 62 61
135 32 49 80 113 106 142 47 52 47 52 -60 52 -107 0 -107 0 -101 -27 5 -21 -3
-43 -31 -90 -20 -35 -40 -63 -43 -63 -4 0 -21 30 -38 67 -23 49 -28 71 -21 84
5 10 9 20 9 23 0 3 -49 6 -110 6 -60 0 -110 -3 -110 -6z"/>
<path d="M689 464 c19 -25 21 -40 21 -200 0 -104 -4 -175 -10 -179 -5 -3 -10
-13 -10 -21 0 -12 30 -14 184 -14 184 0 184 0 188 73 2 39 3 74 2 75 -2 2 -15
-5 -31 -16 -20 -15 -52 -22 -115 -26 -88 -6 -88 -6 -88 35 0 42 0 42 53 35 28
-3 62 -9 75 -12 21 -6 22 -4 22 61 0 58 -2 66 -17 61 -10 -3 -44 -8 -75 -12
-58 -6 -58 -6 -58 35 0 40 1 41 33 40 37 -1 122 -14 155 -24 21 -7 22 -5 22
54 0 61 0 61 -186 61 -185 0 -185 0 -165 -26z"/>
<path d="M1067 483 c-4 -3 0 -11 7 -17 16 -12 94 -224 122 -327 22 -82 28 -89
75 -89 38 0 38 0 76 115 20 63 40 115 44 115 4 0 24 -52 44 -115 37 -115 37
-115 83 -115 47 0 47 0 106 176 32 97 67 192 78 212 10 20 18 40 18 44 0 4
-39 8 -86 8 -85 0 -86 0 -79 -22 4 -13 7 -32 6 -43 0 -31 -34 -155 -42 -155
-7 0 -32 98 -45 178 -7 42 -7 42 -74 42 -68 0 -68 0 -75 -47 -10 -72 -36 -173
-45 -173 -12 0 -44 132 -44 178 1 42 1 42 -81 42 -45 0 -85 -3 -88 -7z"/>
<path d="M2442 474 c-100 -51 -142 -201 -87 -311 38 -75 89 -107 179 -111 63
-3 77 0 126 25 80 42 112 98 113 196 0 88 -19 135 -77 181 -35 29 -44 31 -129
34 -71 2 -100 -1 -125 -14z m181 -127 c38 -77 18 -164 -46 -195 -34 -16 -75 0
-94 38 -20 39 -16 130 6 167 34 55 105 50 134 -10z"/>
<path d="M2810 483 c0 -5 7 -17 15 -27 12 -16 15 -56 15 -192 0 -105 -4 -175
-10 -179 -5 -3 -10 -13 -10 -21 0 -11 18 -14 86 -14 85 0 86 0 79 23 -14 46
-23 101 -18 114 15 38 76 -22 94 -93 11 -44 11 -44 100 -44 51 0 89 4 89 10 0
5 -13 24 -28 42 -16 18 -41 51 -55 73 -27 39 -27 39 5 72 28 29 33 42 36 96 3
53 1 66 -19 91 -37 47 -73 56 -234 56 -80 0 -145 -3 -145 -7z m251 -104 c12
-6 19 -21 19 -39 0 -25 -5 -30 -37 -39 -21 -6 -48 -11 -60 -11 -21 0 -23 5
-23 56 0 57 0 57 41 50 23 -4 50 -11 60 -17z"/>
<path d="M3270 487 c0 -2 7 -18 16 -36 22 -44 26 -310 5 -359 -7 -18 -10 -36
-7 -40 8 -7 157 -4 165 4 3 3 0 13 -6 23 -26 42 -24 139 3 148 15 5 94 -122
94 -151 0 -26 0 -26 95 -26 61 0 95 4 95 11 0 6 -18 31 -39 57 -22 26 -62 80
-90 121 -50 74 -50 74 -10 120 22 25 63 65 90 89 51 42 51 42 -55 42 -105 0
-106 0 -106 -23 0 -24 -42 -90 -72 -115 -14 -11 -17 -10 -22 6 -6 19 4 77 19
115 6 15 -1 17 -84 17 -50 0 -91 -2 -91 -3z"/>
<path d="M4450 462 c20 -26 21 -39 17 -198 -2 -93 -7 -179 -11 -192 -8 -22 -7
-22 84 -22 91 0 92 0 85 23 -5 12 -10 98 -12 191 -4 160 -4 170 16 197 22 29
22 29 -89 29 -111 0 -111 0 -90 -28z"/>
<path d="M4710 429 c0 -61 0 -61 28 -55 55 14 135 27 144 24 5 -2 -23 -46 -63
-98 -40 -52 -88 -114 -106 -138 -23 -31 -33 -54 -33 -79 0 -36 0 -36 187 -29
103 4 191 10 195 12 11 7 10 124 0 124 -5 0 -22 -6 -38 -14 -39 -19 -140 -30
-148 -17 -4 6 15 39 42 73 88 111 152 211 152 235 0 23 0 23 -180 23 -180 0
-180 0 -180 -61z"/>
<path d="M5130 429 c0 -61 0 -61 28 -55 100 22 127 25 135 17 6 -6 -21 -48
-66 -109 -97 -127 -117 -161 -117 -195 0 -27 0 -27 188 -25 187 3 187 3 190
66 2 34 1 62 -1 62 -3 0 -18 -7 -33 -15 -18 -9 -57 -15 -102 -15 -73 0 -73 0
-19 68 118 148 147 193 147 228 0 34 0 34 -175 34 -175 0 -175 0 -175 -61z"/>
<path d="M5541 464 c23 -25 24 -29 23 -195 0 -118 -4 -173 -12 -181 -7 -7 -12
-18 -12 -25 0 -15 157 -18 293 -7 77 7 77 7 77 70 0 35 -2 64 -5 64 -3 0 -16
-6 -28 -14 -12 -8 -61 -18 -109 -22 -88 -7 -88 -7 -88 36 0 43 0 43 53 36 28
-3 62 -9 75 -12 21 -6 22 -4 22 61 0 58 -2 66 -17 61 -10 -3 -45 -8 -77 -12
-53 -6 -59 -5 -53 10 4 10 7 26 7 37 0 17 8 19 79 19 44 0 83 -4 86 -10 3 -5
13 -10 21 -10 11 0 14 14 14 60 0 60 0 60 -187 60 -186 0 -186 0 -162 -26z"/>
<path d="M5957 470 c16 -14 23 -37 28 -84 10 -95 2 -283 -13 -298 -30 -30 -14
-38 79 -38 83 0 90 2 84 17 -51 123 -1 186 56 73 16 -30 31 -63 33 -72 5 -15
18 -18 85 -18 44 0 82 4 85 9 3 4 -14 34 -39 65 -53 69 -63 95 -41 108 47 26
61 136 26 193 -35 56 -68 65 -246 65 -157 0 -158 0 -137 -20z m254 -91 c28
-15 26 -67 -3 -73 -101 -21 -98 -22 -98 40 0 57 0 57 41 50 23 -4 50 -11 60
-17z"/>
<path d="M6429 464 c19 -25 21 -40 21 -193 -1 -130 -4 -170 -15 -185 -8 -11
-15 -23 -15 -28 0 -4 41 -8 91 -8 90 0 91 0 84 23 -26 84 -30 356 -5 381 6 6
10 16 10 23 0 10 -24 13 -96 13 -95 0 -95 0 -75 -26z"/>
<path d="M6785 457 c5 -27 -4 -62 -44 -163 -29 -71 -65 -151 -81 -177 -17 -27
-30 -53 -30 -58 0 -5 38 -9 85 -9 86 0 86 0 80 34 -13 66 -3 76 80 76 81 0 85
-3 85 -71 0 -39 0 -39 83 -39 46 0 86 3 89 6 3 3 -13 42 -37 87 -24 45 -67
142 -96 215 -53 132 -53 132 -136 132 -84 0 -84 0 -78 -33z m124 -203 c1 -12
-30 -24 -62 -24 -20 0 -18 13 10 80 15 35 15 35 33 -5 10 -22 19 -45 19 -51z"/>
</g>
</svg>
